<?xml version="1.0" encoding="utf-8"?>
<!-- Generator: Adobe Illustrator 23.0.2, SVG Export Plug-In . SVG Version: 6.00 Build 0)  -->
<svg version="1.1" id="Capa_1" xmlns="http://www.w3.org/2000/svg" xmlns:xlink="http://www.w3.org/1999/xlink" x="0px" y="0px"
	 viewBox="0 0 555.9 486.9" style="enable-background:new 0 0 555.9 486.9;" xml:space="preserve">
<style type="text/css">
	.st0{fill:#FBF9F9;}
</style>
<g>
	<g id="shopping-basket">
		<path class="st0" d="M413.1,178.5L300.9,10.2C295.8,5.1,288.1,0,280.5,0s-15.3,2.5-20.4,10.2L147.9,178.5H25.5
			C10.2,178.5,0,188.7,0,204c0,2.6,0,5.1,0,7.6l63.8,237.1c5.1,20.4,25.5,38.2,48.4,38.2h331.5c23,0,43.4-15.3,48.5-38.2L556,211.6
			c0-2.6,0-5.1,0-7.6c0-15.3-10.2-25.5-25.5-25.5L413.1,178.5L413.1,178.5z M204,178.5l76.5-112.2L357,178.5H204z M280.5,382.5
			c-28.1,0-51-23-51-51s22.9-51,51-51s51,23,51,51S308.5,382.5,280.5,382.5z"/>
	</g>
</g>
</svg>
